<?xml version="1.0" encoding="UTF-8" standalone="no"?>
<svg
   xmlns:dc="http://purl.org/dc/elements/1.1/"
   xmlns:cc="http://creativecommons.org/ns#"
   xmlns:rdf="http://www.w3.org/1999/02/22-rdf-syntax-ns#"
   xmlns:svg="http://www.w3.org/2000/svg"
   xmlns="http://www.w3.org/2000/svg"
   xmlns:xlink="http://www.w3.org/1999/xlink"
   xmlns:sodipodi="http://sodipodi.sourceforge.net/DTD/sodipodi-0.dtd"
   xmlns:inkscape="http://www.inkscape.org/namespaces/inkscape"
   id="svg23102"
   sodipodi:version="0.32"
   inkscape:version="1.0beta2 (2b71d25, 2019-12-03)"
   width="301.80966"
   height="309.41415"
   sodipodi:docname="texmacs-blog.svg"
   inkscape:output_extension="org.inkscape.output.svg.inkscape"
   version="1.0">
  <defs
     id="defs23104">
    <linearGradient
       id="linearGradient1413"
       xlink:href="#linearGradient1071"
       x1="457.01785"
       y1="391.25125"
       x2="439.64026"
       y2="477.28323"
       gradientTransform="matrix(1.0519699,0,0,0.72840697,-175.14599,329.86369)"
       gradientUnits="userSpaceOnUse" />
    <linearGradient
       id="linearGradient1410"
       xlink:href="#linearGradient1071"
       x1="727.00488"
       y1="343.78809"
       x2="760.84302"
       y2="241.13364"
       gradientTransform="matrix(0.69766591,0,0,1.0983205,-119.95835,361.59029)"
       gradientUnits="userSpaceOnUse" />
    <linearGradient
       id="linearGradient1412"
       xlink:href="#linearGradient1071"
       x1="285.80099"
       y1="881.1568"
       x2="264.95721"
       y2="881.1568"
       gradientTransform="matrix(1.6927633,0,0,0.4526705,-135.98977,329.86369)"
       gradientUnits="userSpaceOnUse" />
    <linearGradient
       id="linearGradient1071">
      <stop
         style="stop-color: rgb(145, 145, 145); stop-opacity: 1;"
         offset="0.0000000"
         id="stop1072" />
      <stop
         style="stop-color: rgb(255, 255, 255); stop-opacity: 1;"
         offset="0.22491229"
         id="stop1074" />
      <stop
         style="stop-color: rgb(166, 166, 166); stop-opacity: 1;"
         offset="1.0000000"
         id="stop1073" />
    </linearGradient>
    <linearGradient
       id="linearGradient1411"
       xlink:href="#linearGradient9528"
       x1="-60.065559"
       y1="507.96848"
       x2="42.992695"
       y2="459.53494"
       gradientTransform="matrix(0.974784,0,0,1.02587,265.055,260.245)"
       gradientUnits="userSpaceOnUse" />
    <linearGradient
       id="linearGradient1414"
       xlink:href="#linearGradient9528"
       x1="-113.3099"
       y1="529.86249"
       x2="66.398819"
       y2="424.69205"
       gradientTransform="matrix(0.997559,0,0,1.00245,265.055,260.245)"
       gradientUnits="userSpaceOnUse" />
    <linearGradient
       id="linearGradient8282">
      <stop
         style="stop-color: rgb(85, 85, 85); stop-opacity: 1;"
         offset="0.0000000"
         id="stop8283" />
      <stop
         style="stop-color: rgb(143, 143, 143); stop-opacity: 1;"
         offset="1.0000000"
         id="stop8284" />
    </linearGradient>
    <linearGradient
       x1="497.63892"
       y1="423.16949"
       x2="534.61127"
       y2="462.09219"
       id="linearGradient1127"
       xlink:href="#linearGradient8282"
       gradientTransform="matrix(0.92004363,0,0,0.8328564,-104.89513,8.5523644)"
       gradientUnits="userSpaceOnUse" />
    <linearGradient
       id="linearGradient9528">
      <stop
         style="stop-color: rgb(44, 44, 44); stop-opacity: 1;"
         offset="0.0000000"
         id="stop9529" />
      <stop
         style="stop-color: rgb(97, 97, 97); stop-opacity: 1;"
         offset="1.0000000"
         id="stop9530" />
    </linearGradient>
    <linearGradient
       x1="436.68405"
       y1="521.10144"
       x2="682.55145"
       y2="393.26578"
       id="linearGradient1003"
       xlink:href="#linearGradient9528"
       gradientTransform="matrix(0.92004363,0,0,0.8328564,-104.89513,8.5523644)"
       gradientUnits="userSpaceOnUse" />
    <linearGradient
       x1="509.39774"
       y1="566.01685"
       x2="577.26996"
       y2="447.6774"
       id="linearGradient1134"
       xlink:href="#linearGradient1116"
       gradientTransform="matrix(1.0908886,0,0,0.70242439,-104.89513,8.5523644)"
       gradientUnits="userSpaceOnUse" />
    <linearGradient
       id="linearGradient1116">
      <stop
         style="stop-color: rgb(50, 50, 50); stop-opacity: 1;"
         offset="0.0000000"
         id="stop1117" />
      <stop
         style="stop-color: rgb(195, 195, 195); stop-opacity: 1;"
         offset="0.22491229"
         id="stop1118" />
      <stop
         style="stop-color: rgb(69, 69, 69); stop-opacity: 1;"
         offset="1.0000000"
         id="stop1119" />
    </linearGradient>
    <linearGradient
       id="linearGradient1157"
       xlink:href="#linearGradient1116"
       x1="414.07809"
       y1="654.17737"
       x2="434.80405"
       y2="654.17737"
       gradientTransform="matrix(1.051646,0,0,0.72863194,-104.89513,8.5523644)"
       gradientUnits="userSpaceOnUse" />
    <linearGradient
       id="linearGradient1064"
       xlink:href="#linearGradient24817"
       x1="63.159069"
       y1="380.01108"
       x2="40.989422"
       y2="387.68732"
       gradientTransform="matrix(1.37995,0,0,0.724664,433.286,425.424)"
       gradientUnits="userSpaceOnUse" />
    <linearGradient
       id="linearGradient1070"
       xlink:href="#linearGradient24817"
       x1="63.983234"
       y1="373.9556"
       x2="56.010918"
       y2="379.05527"
       spreadMethod="pad"
       gradientTransform="matrix(1.34107,0,0,0.745673,433.286,425.424)"
       gradientUnits="userSpaceOnUse" />
    <linearGradient
       id="linearGradient1080"
       xlink:href="#linearGradient24817"
       x1="139.73436"
       y1="145.36617"
       x2="138.29729"
       y2="180.58359"
       gradientTransform="matrix(0.599135,0,0,1.66907,433.286,425.424)"
       gradientUnits="userSpaceOnUse" />
    <linearGradient
       id="linearGradient1115"
       xlink:href="#linearGradient24817"
       x1="171.97173"
       y1="154.15039"
       x2="110.10181"
       y2="227.91219"
       gradientTransform="matrix(0.57801,0,0,1.73007,433.286,425.424)"
       gradientUnits="userSpaceOnUse" />
    <linearGradient
       id="linearGradient24817">
      <stop
         style="stop-color: rgb(255, 143, 106); stop-opacity: 1;"
         offset="0.0000000"
         id="stop24818" />
      <stop
         style="stop-color: rgb(232, 213, 143); stop-opacity: 1;"
         offset="0.22491229"
         id="stop24819" />
      <stop
         style="stop-color: rgb(255, 121, 100); stop-opacity: 1;"
         offset="1.0000000"
         id="stop24820" />
    </linearGradient>
    <linearGradient
       id="linearGradient1154"
       xlink:href="#linearGradient24817"
       x1="145.42744"
       y1="163.28764"
       x2="136.09653"
       y2="177.14771"
       gradientTransform="matrix(0.570025,0,0,1.75431,433.286,425.424)"
       gradientUnits="userSpaceOnUse" />
    <linearGradient
       inkscape:collect="always"
       xlink:href="#linearGradient8282"
       id="linearGradient6919"
       gradientUnits="userSpaceOnUse"
       gradientTransform="matrix(0.45246566,0,0,1.6935249,151.94989,-29.600188)"
       x1="1067.7531"
       y1="180.1207"
       x2="1064.0095"
       y2="169.10129" />
  </defs>
  <sodipodi:namedview
     id="base"
     pagecolor="#ffffff"
     bordercolor="#666666"
     borderopacity="1.0"
     inkscape:pageopacity="0.0"
     inkscape:pageshadow="2"
     inkscape:zoom="0.61399264"
     inkscape:cx="366.73448"
     inkscape:cy="95.286486"
     inkscape:window-width="1266"
     inkscape:window-height="847"
     inkscape:window-x="148"
     inkscape:window-y="23"
     inkscape:current-layer="svg23102"
     inkscape:document-rotation="0"
     showgrid="false"
     inkscape:window-maximized="0" />
  <metadata
     id="metadata23105">
    <rdf:RDF>
      <cc:Work
         rdf:about="">
        <dc:format>image/svg+xml</dc:format>
        <dc:type
           rdf:resource="http://purl.org/dc/dcmitype/StillImage" />
        <dc:title />
      </cc:Work>
    </rdf:RDF>
  </metadata>
  <rect
     style="fill:#e6e6e6;fill-opacity:1;stroke:#000000;stroke-width:0.506629;stroke-linejoin:round;stroke-miterlimit:4;stroke-dasharray:none;stroke-opacity:1"
     id="rect5062"
     width="309.74292"
     height="325.1156"
     x="-131.94751"
     y="-411.55505"
     inkscape:export-xdpi="96"
     inkscape:export-ydpi="96" />
  <path
     id="path7320"
     style="fill:none;fill-rule:evenodd;stroke:#1a1a1a;stroke-width:5.26145;stroke-linecap:round;stroke-linejoin:round;stroke-miterlimit:4;stroke-dasharray:none;stroke-opacity:1"
     d="m 457.81906,-45.405767 -182.98619,77.182735 96.4937,179.605352 187.36791,-78.8789 z"
     inkscape:connector-curvature="0"
     inkscape:export-xdpi="96"
     inkscape:export-ydpi="96" />
  <path
     inkscape:connector-curvature="0"
     id="rect1986"
     style="fill:#1a1a1a;fill-opacity:1;stroke:none;stroke-width:4.84904;stroke-linejoin:round;stroke-miterlimit:4;stroke-dasharray:none;stroke-opacity:1"
     d="m 327.52487,-100.03874 c -57.19928,0 -103.24804,45.206452 -103.24804,101.3613274 V 194.6174 c 0,56.15487 46.04876,101.36328 103.24804,101.36328 h 176.00977 c 57.19929,0 103.24804,-45.20841 103.24804,-101.36328 V 1.3225874 c 0,-56.1548754 -46.04875,-101.3613274 -103.24804,-101.3613274 z m 132.83778,50.109738 19.75195,34.822265 c 3.29809,0.01239 6.36598,0.113665 6.72852,0.464844 0.008,0.0077 0.073,0.09988 0.082,0.109375 0.42476,0.362305 1.37353,0.80986 3.20117,3.365235 2.83394,3.9624084 5.70829,8.6899854 5.60742,11.0234374 -0.0192,0.454577 -0.40157,7.625469 -0.60156,11.5175776 l 6.23633,11.023438 c 3.36702,0.0084 6.52566,0.10751 6.89453,0.464843 0.008,0.0077 0.073,0.09987 0.082,0.109375 0.42524,0.362226 1.37287,0.811646 3.19922,3.365235 2.83394,3.962409 5.70826,8.689956 5.60742,11.023436 -0.0196,0.46433 -0.42165,7.73439 -0.6289,11.76367 l 6.07421,10.72266 c 3.71431,-0.0138 7.36499,0.1022 7.76758,0.49219 0.008,0.008 0.073,0.10037 0.082,0.10937 0.42524,0.36223 1.34748,0.81161 3.17383,3.36524 2.83394,3.96241 5.70828,8.68996 5.60742,11.02343 -0.0219,0.5183 -0.43468,8.31941 -0.68359,13.13086 l 4.54102,7.98828 c 3.40964,0.006 6.6291,0.10367 7.00195,0.46485 0.008,0.008 0.073,0.0994 0.082,0.10937 0.42476,0.36223 1.37354,0.83713 3.20117,3.39258 2.83394,3.962341 5.70829,8.662631 5.60742,10.996091 -0.0199,0.47183 -0.41597,7.81881 -0.6289,11.95508 l 5.06054,8.94532 0.90235,0.32812 c 0.16988,5.62282 1.1755,17.54041 -3.71875,20.05078 -1.34255,0.57004 -2.78519,1.17891 -4.13086,1.75 -0.19841,2.67581 -0.53531,9.10947 -0.62891,9.10938 -0.21675,-3e-4 -0.5037,0.0145 -0.65625,0.0273 -0.43085,-6e-4 -0.74933,0.0433 -1.01367,0.0273 -0.57744,0.0907 -2.66429,-2.9628 -4.65039,-6.23632 -56.20995,23.83392 -114.67141,48.4001 -172.00781,72.59961 -5.88938,3.58068 -10.63916,0.56464 -14.16992,-5.49805 -3.90165,-7.45842 -7.80541,-14.85948 -11.70899,-22.29492 -1.75539,0.64269 -3.76972,1.20491 -4.54101,1.72461 -1.43628,0.9678 -2.96458,50.64732 -3.99414,50.60742 -0.76042,-0.0295 -1.18063,-0.0301 -1.69532,-0.0547 -8.4e-4,1e-4 8.4e-4,0.0273 0,0.0273 -0.95804,-0.004 -0.67232,0.0542 -1.36718,-0.0273 -0.002,-2.6e-4 0.002,-0.10849 0,-0.10937 -1.11304,-0.052 -6.94073,-13.46623 -7.41407,-15.26563 -0.47794,-1.81691 0.7726,-47.98384 2.6543,-49.56641 1.12518,-0.94627 4.868,-2.1549 8.15039,-2.95507 -4.25164,-8.08688 -8.52153,-16.18012 -12.77344,-24.26368 -1.82952,0.70817 -4.0672,1.30055 -4.89648,1.85938 -1.43628,0.96781 -2.96457,50.64732 -3.99414,50.60742 -0.76041,-0.0295 -1.18258,-0.0301 -1.69727,-0.0547 -8.4e-4,0 8.4e-4,0.0273 0,0.0273 -0.95805,-0.004 -0.67234,0.0541 -1.36719,-0.0273 -0.002,-2.6e-4 0.002,-0.10849 0,-0.10937 -1.11303,-0.0521 -6.94071,-13.46427 -7.41406,-15.26367 -0.47794,-1.8169 0.7726,-47.98587 2.6543,-49.56836 1.17227,-0.98592 5.17024,-2.24225 8.53516,-3.03516 -4.45151,-8.47011 -8.87276,-17.08428 -13.32227,-25.57812 -1.85338,0.73819 -4.20563,1.33984 -5.06055,1.91601 -1.43629,0.9678 -2.9919,50.64537 -4.02148,50.60547 -0.75716,-0.0294 -1.15659,-0.0307 -1.66797,-0.0547 -0.002,2e-4 0.002,0.0547 0,0.0547 -0.95804,-0.004 -0.67429,0.0267 -1.36914,-0.0547 -0.002,-2e-4 0.002,-0.0813 0,-0.082 -1.08133,0.0499 -6.93698,-13.45744 -7.41211,-15.26367 -0.47794,-1.81691 0.7433,-48.01322 2.625,-49.5957 1.2026,-1.01149 5.39935,-2.27756 8.80859,-3.0625 -4.23705,-8.113501 -8.45826,-16.240751 -12.6914,-24.400391 -1.888,0.84353 -4.66895,1.5538 -5.60938,2.1875 -1.43628,0.96781 -2.96456,50.619971 -3.99414,50.580071 -0.7481,-0.0293 -1.16569,-0.005 -1.66797,-0.0273 -8.4e-4,0 8.4e-4,0.0273 0,0.0273 -0.95805,-0.004 -0.69967,0.0541 -1.39453,-0.0273 -0.002,-3.5e-4 -0.0243,-0.13472 -0.0273,-0.13672 -1.1264,-0.0951 -6.91414,-13.43982 -7.38672,-15.23633 -0.47794,-1.8169 0.77261,-47.985811 2.6543,-49.568361 1.27679,-1.07381 5.89699,-2.47432 9.38281,-3.22851 -1.36611,-2.64712 -2.73799,-5.22302 -4.10352,-7.87695 -3.27444,-7.09308 -3.54726,-20.86336 -3.77539,-28.751958 l 0.10938,0.02734 0.82031,0.275391 z"
     inkscape:export-xdpi="96"
     inkscape:export-ydpi="96"
     sodipodi:nodetypes="sssssssssccccccccccccccccccccccccccccccccccccccccccccccccccccccccccccccsccccccccccccccccc" />
  <path
     id="path7645"
     style="fill:#1a1a1a;fill-opacity:1;stroke:none;stroke-width:0.875365"
     sodipodi:type="inkscape:offset"
     inkscape:radius="1.4386361"
     inkscape:original="M 178.20898 37.148438 A 6.0231815 6.0231815 0 0 0 175.82031 37.638672 L 125.32227 59.402344 A 6.0231815 6.0231815 0 0 0 125.31445 59.40625 L 74.841797 81.228516 A 6.0231815 6.0231815 0 0 0 71.208984 86.736328 L 71.179688 95.683594 A 6.0231815 6.0231815 0 0 0 71.181641 95.744141 C 71.213771 100.56894 71.136809 106.61945 71.193359 109.53516 L 71.191406 109.42773 L 71.199219 114.28516 A 6.0231815 6.0231815 0 0 0 79.597656 119.81055 L 80.681641 119.3457 C 83.194115 118.27 84.147776 116.46646 84.707031 115.07031 C 85.266286 113.67416 85.447342 112.3661 85.439453 111.01367 A 6.0231815 6.0231815 0 0 0 85.435547 110.8457 C 85.471707 111.92011 85.495827 110.60958 85.810547 109.47656 C 86.125265 108.34354 86.606323 106.91843 87.105469 105.67188 C 90.085115 98.230508 96.224588 91.925191 108.21094 85.375 C 109.1274 84.877863 113.86869 82.650766 119.70117 80.037109 C 125.5405 77.420386 132.77541 74.239986 139.82031 71.183594 C 146.09152 68.462866 151.86896 65.999291 156.72461 63.957031 C 155.29482 70.247298 153.38029 78.586653 151.24414 87.867188 C 149.00235 97.402344 146.9759 106.14994 145.51172 112.57617 C 144.77882 115.79283 144.18668 118.42639 143.77539 120.30469 C 143.56975 121.24384 143.41017 121.98985 143.29492 122.55469 C 143.23732 122.83711 143.19188 123.06861 143.15039 123.30078 C 143.12969 123.41687 143.10994 123.52865 143.08594 123.70117 C 143.06574 123.84605 143.00843 124.05657 143.04883 124.88867 C 143.14833 127.30899 143.99712 127.96142 144.35742 128.41016 C 144.72669 128.87005 144.94657 129.05244 145.12109 129.20508 C 145.47014 129.51036 145.6421 129.62081 145.80469 129.73242 C 146.12985 129.95565 146.36478 130.09431 146.64453 130.25977 C 147.20402 130.59068 147.88457 130.96964 148.74609 131.4375 C 150.46914 132.37323 152.88086 133.64059 155.84961 135.17578 C 161.7871 138.24616 169.92746 142.37036 178.85352 146.82227 A 6.0231815 6.0231815 0 0 0 178.86523 146.82812 L 199.75781 157.18945 L 183.85156 164.12305 C 165.41012 172.16123 153.9585 176.84802 145.91797 179.35352 C 137.87744 181.85901 133.49749 182.27147 127.66797 181.98047 A 6.0231815 6.0231815 0 0 0 127.63867 181.98047 C 122.77735 181.76046 115.30961 178.58968 114.19336 177.51367 A 6.0231815 6.0231815 0 0 0 114.10938 177.43555 C 113.10995 176.50811 112.10347 175.69136 110.69141 175.01562 C 109.27935 174.3399 106.99172 173.58943 104.32227 174.73242 C 103.83644 174.94044 103.39587 175.13519 102.75977 175.53125 C 102.44171 175.72928 102.08458 175.92029 101.42969 176.58984 C 101.10224 176.92462 100.65606 177.37021 100.19727 178.38672 C 99.738468 179.40323 99.349966 181.42401 100.14648 183.28516 A 6.0231815 6.0231815 0 0 0 100.14648 183.28711 C 100.14659 183.28735 100.51565 184.01268 100.61523 184.16797 C 100.71483 184.32326 100.77822 184.41179 100.83008 184.48242 C 100.93378 184.62368 100.98645 184.68794 101.0293 184.74023 C 101.115 184.84482 101.15302 184.88502 101.18555 184.92188 C 101.25055 184.99558 101.28305 185.03012 101.31836 185.06836 C 101.38896 185.14486 101.45477 185.21563 101.53711 185.30273 C 101.70179 185.47694 101.92203 185.70832 102.20312 186.00195 C 102.76534 186.58921 103.56408 187.41923 104.54688 188.43945 C 106.51243 190.4799 109.21046 193.27469 112.16406 196.33398 L 122.85352 207.46289 A 6.0231815 6.0231815 0 0 0 129.56836 208.82812 L 179.87695 187.28906 C 198.03461 179.51495 210.61639 174.07442 218.70312 170.48633 C 222.74651 168.69228 225.65517 167.36744 227.64648 166.4082 C 228.64214 165.92859 229.392 165.55178 230.06055 165.17578 C 230.39482 164.98778 230.68944 164.82477 231.1543 164.48633 C 231.38673 164.31711 231.65931 164.13246 232.12891 163.63086 C 232.59851 163.12926 233.93388 162.37229 233.78711 159.16992 A 6.0231815 6.0231815 0 0 0 233.77344 158.94727 C 233.59474 156.79324 232.86503 156.17865 232.51562 155.72852 C 232.16622 155.27838 231.94622 155.08195 231.76953 154.92188 C 231.41616 154.6017 231.23132 154.47966 231.06055 154.35938 C 230.719 154.11881 230.47252 153.96953 230.18164 153.79492 C 229.59988 153.44571 228.9014 153.05326 228.01758 152.57031 C 226.24994 151.60441 223.78282 150.30458 220.74805 148.73633 C 214.67951 145.60034 206.36275 141.4052 197.22852 136.89453 L 197.22461 136.89258 C 186.64484 131.65814 178.41399 127.48951 172.91602 124.5918 C 170.942 123.55139 169.77269 122.88911 168.54492 122.20117 C 169.01582 120.16741 169.60557 117.6158 170.36133 114.33594 C 172.01505 107.15904 174.26369 97.389852 176.7168 86.765625 A 6.0231815 6.0231815 0 0 0 176.7168 86.757812 C 180.18918 71.643512 182.37597 61.872102 183.64258 55.580078 C 184.27588 52.434066 184.68071 50.173588 184.9082 48.404297 C 185.02195 47.519651 185.0971 46.766444 185.10742 45.955078 C 185.11772 45.143712 185.25978 44.347428 184.51562 42.609375 L 183.74023 40.798828 A 6.0231815 6.0231815 0 0 0 178.20898 37.148438 z "
     d="m 178.21094,35.708984 c -1.01397,-0.0014 -2.02755,0.206732 -2.95899,0.607422 a 1.4387799,1.4387799 0 0 0 -0.002,0.002 l -50.49805,21.763672 a 1.4387799,1.4387799 0 0 0 -0.0332,0.01563 l -0.0488,0.02148 -50.398436,21.789062 c -2.646619,1.144294 -4.492018,3.938881 -4.501953,6.822266 a 1.4387799,1.4387799 0 0 0 0,0.002 l -0.0293,8.947266 a 1.4387799,1.4387799 0 0 0 0.002,0.04297 c 2.86e-4,0.01052 -3.31e-4,0.02073 0,0.03125 0.03152,4.732904 -0.03952,10.589304 0.01367,13.611324 a 1.4387799,1.4387799 0 0 0 -0.0039,0.0645 l 0.0078,4.85742 c 0.0039,2.45563 1.309865,4.87298 3.361328,6.22266 2.051463,1.34967 4.786346,1.59143 7.042968,0.62304 l 1.083985,-0.46484 c 2.926244,-1.25285 4.184771,-3.53929 4.794922,-5.0625 0.533607,-1.33212 0.723725,-2.6177 0.779297,-3.87891 9.71e-4,-0.003 0.0087,-0.0146 0.0098,-0.0176 0.05399,-0.15395 0.05642,-0.1973 0.06641,-0.24804 0.01998,-0.10149 0.02985,-0.17168 0.04297,-0.25977 0.05248,-0.35235 0.134245,-0.90202 0.25586,-1.33984 0.296797,-1.0685 0.767076,-2.4629 1.24414,-3.6543 2.830058,-7.067789 8.631083,-13.106208 20.455074,-19.568358 l 0.004,-0.002 c 0.67408,-0.365418 5.57101,-2.680095 11.38867,-5.28711 5.83163,-2.613271 13.06299,-5.791207 20.10352,-8.845703 5.3047,-2.301414 9.96152,-4.279992 14.29883,-6.113281 -1.36042,5.968644 -2.95946,12.942505 -4.84961,21.154297 -2.2416,9.534429 -4.26766,18.282138 -5.73242,24.710938 -0.7334,3.21884 -1.32734,5.85457 -1.74024,7.74023 -0.20643,0.94274 -0.36672,1.69489 -0.48437,2.27149 -0.0588,0.28809 -0.10604,0.53109 -0.15039,0.7793 a 1.4387799,1.4387799 0 0 0 0,0.002 c -0.021,0.11752 -0.0471,0.25987 -0.0742,0.45508 0.005,-0.033 -0.0903,0.54747 -0.0488,1.44336 3e-5,8.2e-4 -4e-5,0.001 0,0.002 0.0567,1.37134 0.34078,2.37213 0.71679,3.09961 0.37624,0.72791 0.86025,1.20198 0.90821,1.26172 0.42756,0.53249 0.78624,0.84426 0.9375,0.97656 0.39586,0.34622 0.67891,0.53648 0.8164,0.63086 0.36256,0.2489 0.64277,0.41499 0.92188,0.58008 0.58523,0.34613 1.27788,0.73141 2.14648,1.20312 1.73906,0.94442 4.15754,2.2144 7.13086,3.75195 5.94675,3.07517 14.08924,7.20223 23.01953,11.65626 0.005,0.002 0.0108,0.003 0.0156,0.006 a 1.4387799,1.4387799 0 0 0 0.002,0.002 l 18.125,8.98828 -13.07422,5.69922 c -18.42923,8.03286 -29.86266,12.70645 -37.78711,15.17578 -7.94167,2.47468 -12.02392,2.84834 -17.75,2.5625 a 1.4387799,1.4387799 0 0 0 -0.0449,-0.002 c -2.15162,-0.0988 -5.16254,-0.90138 -7.68945,-1.82422 -1.26481,-0.46192 -2.4181,-0.95123 -3.29688,-1.37696 -0.87877,-0.42572 -1.56139,-0.90356 -1.51757,-0.86132 a 1.4387799,1.4387799 0 0 0 -0.008,-0.01 c -0.0317,-0.03 -0.0635,-0.0584 -0.0957,-0.0879 -1.04374,-0.96856 -2.19628,-1.90643 -3.77539,-2.66211 -1.58367,-0.75784 -4.40434,-1.65833 -7.55664,-0.30859 -0.4952,0.21203 -1.04637,0.45863 -1.75586,0.90039 -0.26024,0.16202 -0.85754,0.51476 -1.59961,1.27343 -0.31686,0.32396 -0.975858,1.01934 -1.513671,2.21094 -0.627635,1.39057 -1.073794,3.69363 -0.0625,6.05664 a 1.4387799,1.4387799 0 0 0 0.01367,0.0352 c 5.5e-5,1.2e-4 0.121706,0.23875 0.230468,0.44726 0.108763,0.20852 0.172681,0.35674 0.335938,0.61133 0.115213,0.17963 0.205342,0.30657 0.265625,0.38867 0.11805,0.16081 0.20332,0.26617 0.246094,0.31836 0.103364,0.12615 0.183484,0.21173 0.191404,0.22071 0.0749,0.0849 0.12456,0.13966 0.1543,0.17187 0.0729,0.079 0.14376,0.15438 0.23047,0.2461 0.16771,0.17741 0.3893,0.40989 0.67187,0.70507 0.56465,0.58979 1.36458,1.4209 2.34766,2.44141 1.96653,2.04147 4.66356,4.83717 7.61719,7.89648 l 10.6875,11.125 c 2.08481,2.17103 5.55129,2.87598 8.31836,1.69141 l 50.30859,-21.53906 c 18.15986,-7.77506 30.74416,-13.21675 38.84375,-16.81055 4.0496,-1.7968 6.96619,-3.12352 8.98437,-4.0957 1.00665,-0.48491 1.78292,-0.87539 2.49414,-1.27539 0.32916,-0.18513 0.71535,-0.40195 1.23633,-0.78125 0.20234,-0.14732 0.6387,-0.45939 1.17774,-1.03516 0.0166,-0.0177 0.73457,-0.57234 1.25781,-1.48437 0.52281,-0.91128 0.86909,-2.2181 0.78711,-4.02149 v -0.002 c -0.004,-0.0914 -0.0103,-0.18226 -0.0176,-0.27344 a 1.4387799,1.4387799 0 0 0 0,-0.004 c -0.10176,-1.22657 -0.37658,-2.12731 -0.7207,-2.79101 -0.34412,-0.66371 -0.76227,-1.09901 -0.83399,-1.19141 -0.40445,-0.52106 -0.74568,-0.83592 -0.91601,-0.99023 -0.40356,-0.36566 -0.7019,-0.56921 -0.84766,-0.67188 -0.37888,-0.26686 -0.67317,-0.44678 -0.96679,-0.62304 -0.60964,-0.36594 -1.32313,-0.76469 -2.21485,-1.25196 -1.78534,-0.97557 -4.25854,-2.2785 -7.29883,-3.84961 -6.0785,-3.14113 -14.3987,-7.33879 -23.53711,-11.85156 l -0.006,-0.002 a 1.4387799,1.4387799 0 0 0 -0.002,-0.002 c -10.57348,-5.23133 -18.79984,-9.39824 -24.27734,-12.28516 -1.53166,-0.80726 -2.4246,-1.31362 -3.39258,-1.85547 0.4359,-1.88378 0.91654,-3.96744 1.57031,-6.80469 1.65379,-7.17719 3.9025,-16.944717 6.35547,-27.568356 a 1.4387799,1.4387799 0 0 0 0.0156,-0.08398 1.4387799,1.4387799 0 0 0 0.004,-0.01563 c 3.45581,-15.043626 5.64476,-24.821549 6.91406,-31.126953 0.63621,-3.160433 1.04795,-5.445706 1.28321,-7.27539 0.1167,-0.9076 0.19963,-1.72638 0.21094,-2.615235 0.008,-0.655428 0.12382,-1.984579 -0.70899,-3.929687 l -0.77539,-1.810547 c -1.14159,-2.663514 -3.95371,-4.521096 -6.85156,-4.523438 z M 98.824219,183.85156 98.707031,183.28711 a 1.4387799,1.4387799 0 0 0 0.117188,0.56445 z"
     transform="translate(269.99565,-53.95358)"
     inkscape:export-xdpi="96"
     inkscape:export-ydpi="96" />
  <path
     id="rect6908"
     style="fill:none;fill-opacity:1;stroke:#afafaf;stroke-width:3.673;stroke-linejoin:round;stroke-miterlimit:4;stroke-dasharray:none;stroke-opacity:1"
     d="m 326.47436,-83.627479 c -48.2851,0 -87.15749,37.003576 -87.15749,74.8751111 V 201.08071 c 0,37.87153 38.87239,76.5038 87.15749,76.5038 h 176.938 c 48.2851,0 87.15749,-38.63227 87.15749,-76.5038 V -8.7523679 c 0,-37.8715351 -38.87239,-74.8751111 -87.15749,-74.8751111 z"
     inkscape:connector-curvature="0"
     sodipodi:nodetypes="sssssssss"
     inkscape:export-xdpi="96"
     inkscape:export-ydpi="96" />
  <g
     inkscape:export-ydpi="96"
     inkscape:export-xdpi="96"
     transform="translate(185.48159,-298.47847)"
     id="g6917">
    <path
       id="path6913"
       style="fill:url(#linearGradient6919);fill-opacity:1;fill-rule:evenodd;stroke:none;stroke-width:0.875365pt;stroke-linecap:butt;stroke-linejoin:miter;stroke-opacity:1"
       d="m 439.83092,-7.0739693 c -0.7088,0.03561 -1.4237,0.1759426 -2.10352,0.4628906 a 6.5228814,6.5228814 0 0 0 -3.79297,4.4394531 l -1.26172,5.0839848 a 5.0553007,5.0553007 0 0 0 -3.23242,-1.150391 5.0553007,5.0553007 0 0 0 -1.96484,0.4082031 C 407.24258,10.838408 383.82039,20.8928 363.59263,29.558843 a 5.0553007,5.0553007 0 0 0 -0.15234,0.06836 c -6.2259,2.915164 -12.0096,6.230764 -16.71094,11.695313 a 5.0553007,5.0553007 0 0 0 -6.92383,-4.189453 c -2.42692,0.980652 -3.41146,2.467659 -4.32617,3.796875 -0.9147,1.329215 -1.62062,2.698707 -2.24609,4.001953 -0.62547,1.303246 -1.15891,2.539431 -1.56836,3.449219 -0.40945,0.909787 -1.18534,1.870715 -0.29297,0.820312 a 5.0553007,5.0553007 0 0 0 -1.20312,3.330078 c 0.0475,4.284238 -0.34526,10.021591 -0.52735,15.707032 -0.18209,5.685439 -0.23804,11.261639 0.9668,16.130859 0.83948,3.392616 3.37455,4.232021 4.86328,4.681641 1.48873,0.449619 2.84602,0.5572 4.23047,0.55664 1.38445,-5.6e-4 2.75153,-0.132193 4.13476,-0.470703 1.38322,-0.33851 2.88958,-0.564393 4.60157,-2.605469 5.55927,-6.62788 8.35624,-13.623182 10.99804,-19.164062 2.62533,-5.50637 4.89557,-9.291918 8.92383,-11.617188 14.84528,-7.361047 32.77198,-14.52834 48.6836,-22.076172 -4.90974,22.524151 -12.92905,54.281605 -12.25782,60.232426 0.12005,1.06424 0.78489,-0.24743 1.82227,-2.488285 -0.21717,1.256239 -0.0751,2.203025 0.66016,2.537105 15.79718,7.178306 37.46934,18.778096 57.45898,28.546876 l -73.03711,30.73437 -20.3125,-18.51367 a 1.9550832,1.9550832 0 0 0 -1.51563,-0.5 c -0.83852,0.0859 -1.29679,0.43804 -1.70312,0.76172 -0.40633,0.32368 -0.75147,0.68689 -1.0957,1.0918 -0.68847,0.80983 -1.35649,1.79323 -1.99414,2.83398 -1.27531,2.08149 -2.36632,4.16937 -2.79297,5.79297 -0.27109,1.03157 0.0233,1.41206 0.19531,1.8457 0.17199,0.43364 0.39193,0.84904 0.66211,1.31641 0.54037,0.93472 1.28757,2.04957 2.19727,3.32617 1.81938,2.5532 4.27941,5.72675 6.82031,8.90821 5.08179,6.36292 10.38486,12.63266 11.55859,13.9414 1.43372,1.59858 3.06095,2.74192 4.9082,3.16797 1.84724,0.42604 3.80947,0.0442 5.55469,-0.96875 -0.0602,0.035 1.55287,-0.73147 3.74024,-1.67773 2.18737,-0.94625 5.19707,-2.22858 8.82031,-3.77149 7.24648,-3.08583 16.94843,-7.21413 27.49023,-11.80469 21.08355,-9.18112 45.49198,-20.18633 60.4668,-28.47656 0.96474,-0.53407 1.3613,-1.46507 1.52734,-2.21484 0.16603,-0.74976 0.16448,-1.47849 0.10352,-2.25391 -0.12191,-1.55085 -0.52632,-3.28939 -1.05664,-5.04101 -0.53031,-1.75162 -1.19034,-3.49307 -1.87109,-4.95703 -0.68077,-1.46398 -1.15673,-2.56639 -2.27735,-3.5 a 1.9550832,1.9550832 0 0 0 -1.30469,-0.45313 1.9550832,1.9550832 0 0 0 -0.70507,0.15234 l -13.3125,5.60157 3.81054,-5.42188 -44.4375,-22.876948 a 6.5228814,6.5228814 0 0 0 1.31055,-2.707031 c 2.94895,-13.3416 7.01628,-31.66606 10.32422,-46.84375 1.65397,-7.588845 3.1163,-14.388431 4.16015,-19.410156 0.52192,-2.510863 0.93894,-4.57102 1.22852,-6.105469 0.14479,-0.767225 0.25822,-1.396642 0.34375,-1.945313 0.0428,-0.274335 0.0787,-0.521004 0.11133,-0.828125 0.0326,-0.307121 0.22268,-0.230112 -0.0215,-1.8964838 a 6.5228814,6.5228814 0 0 0 -0.88476,-2.449219 c 0.39135,0.641987 -1.16502,-3.018779 -2.33594,-5.9238279 -0.58546,-1.452524 -1.16014,-2.8626566 -2.11719,-4.3925781 -0.47854,-0.76496 -0.98558,-1.6024594 -2.27929,-2.6152344 -0.97029,-0.7595819 -3.04939,-1.6087701 -5.17578,-1.5019531 z m -12.00977,29.5390623 -11.82813,47.658203 7.59375,-39.859375 a 5.0553007,5.0553007 0 0 0 0.63282,-0.710937 c 1.10187,-1.506306 1.74304,-2.958009 2.59375,-4.814453 0.32836,-0.716565 0.66816,-1.495438 1.00781,-2.273438 z"
       inkscape:connector-curvature="0" />
    <path
       id="path6915"
       style="fill:#333333;fill-opacity:1;stroke:none;stroke-width:0.875365"
       sodipodi:type="inkscape:offset"
       inkscape:radius="6.0225792"
       inkscape:original="M 178.20312 43.169922 L 127.70508 64.933594 L 77.232422 86.755859 L 77.203125 95.703125 C 77.235865 100.62019 77.163984 106.79551 77.214844 109.41797 L 77.222656 114.27539 L 78.310547 113.80859 C 78.974879 113.52416 79.423916 112.40318 79.416016 111.04883 C 79.373333 109.78073 80.339422 106.36615 81.513672 103.43359 C 85.14002 94.377154 92.638942 87.020914 105.32227 80.089844 C 111.52589 76.719134 164.81221 53.618559 165.04492 54.162109 C 165.1225 54.343289 161.511 70.1128 157.11328 89.21875 C 152.62931 108.29015 149.00857 124.20311 149.04297 124.61719 C 149.05147 124.97088 163.73065 132.55059 181.54102 141.43359 L 214.02148 157.54297 L 186.25781 169.64453 C 149.27918 185.76262 140.07368 188.63038 127.36719 187.99609 C 121.02687 187.70914 113.29921 185.01668 110.01367 181.84961 C 108.59079 180.52921 107.41809 179.95922 106.69336 180.26953 C 106.08942 180.52812 105.63189 180.79522 105.68359 180.91602 C 105.70945 180.97642 110.58919 186.03211 116.49609 192.15039 L 127.19727 203.29102 L 177.50586 181.75195 C 213.8028 166.21159 227.79718 160.00607 227.77148 159.44531 C 227.73713 159.03126 212.77436 151.28823 194.55859 142.29297 C 173.34136 131.79562 161.52566 125.56229 161.70703 124.98438 C 161.85386 124.49273 165.94022 106.6639 170.84766 85.410156 C 177.78554 55.211546 179.57325 46.369529 178.97852 44.980469 L 178.20312 43.169922 z "
       transform="translate(262.04062,-44.494812)"
       d="m 178.20898,37.148438 a 6.0231815,6.0231815 0 0 0 -2.38867,0.490234 l -50.49804,21.763672 a 6.0231815,6.0231815 0 0 0 -0.008,0.0039 L 74.841797,81.228516 a 6.0231815,6.0231815 0 0 0 -3.632813,5.507812 l -0.0293,8.947266 a 6.0231815,6.0231815 0 0 0 0.002,0.06055 c 0.03213,4.824799 -0.04483,10.875309 0.01172,13.791019 l -0.002,-0.10743 0.0078,4.85743 a 6.0231815,6.0231815 0 0 0 8.398437,5.52539 l 1.083985,-0.46485 c 2.512474,-1.0757 3.466135,-2.87924 4.02539,-4.27539 0.559255,-1.39615 0.740311,-2.70421 0.732422,-4.05664 a 6.0231815,6.0231815 0 0 0 -0.0039,-0.16797 c 0.03616,1.07441 0.06028,-0.23612 0.375,-1.36914 0.314718,-1.13302 0.795776,-2.55812 1.294922,-3.80468 2.979646,-7.44137 9.119121,-13.746689 21.105471,-20.29688 0.91646,-0.497137 5.65775,-2.724234 11.49023,-5.337891 5.83933,-2.616723 13.07424,-5.797123 20.11914,-8.853515 6.27121,-2.720728 12.04865,-5.184303 16.9043,-7.226563 -1.42979,6.290267 -3.34432,14.629623 -5.48047,23.910157 -2.24179,9.535157 -4.26824,18.282752 -5.73242,24.708982 -0.7329,3.21666 -1.32504,5.85022 -1.73633,7.72852 -0.20564,0.93915 -0.36522,1.68516 -0.48047,2.25 -0.0576,0.28242 -0.10304,0.51392 -0.14453,0.74609 -0.0207,0.11609 -0.0404,0.22787 -0.0644,0.40039 -0.0202,0.14488 -0.0775,0.3554 -0.0371,1.1875 0.0995,2.42032 0.94829,3.07275 1.30859,3.52149 0.36927,0.45989 0.58915,0.64228 0.76367,0.79492 0.34905,0.30528 0.52101,0.41573 0.6836,0.52734 0.32516,0.22323 0.56009,0.36189 0.83984,0.52735 0.55949,0.33091 1.24004,0.70987 2.10156,1.17773 1.72305,0.93573 4.13477,2.20309 7.10352,3.73828 5.93749,3.07038 14.07785,7.19458 23.00391,11.64649 a 6.0231815,6.0231815 0 0 0 0.0117,0.006 l 20.89258,10.36133 -15.90625,6.9336 c -18.44144,8.03818 -29.89306,12.72497 -37.93359,15.23047 -8.04053,2.50549 -12.42048,2.91795 -18.25,2.62695 a 6.0231815,6.0231815 0 0 0 -0.0293,0 c -4.86132,-0.22001 -12.32906,-3.39079 -13.44531,-4.4668 a 6.0231815,6.0231815 0 0 0 -0.084,-0.0781 c -0.99942,-0.92744 -2.00591,-1.7442 -3.41797,-2.41993 -1.41206,-0.67572 -3.69969,-1.42619 -6.36914,-0.2832 -0.48583,0.20802 -0.9264,0.40277 -1.5625,0.79883 -0.31806,0.19803 -0.67519,0.38904 -1.33008,1.05859 -0.32745,0.33478 -0.77363,0.78037 -1.23242,1.79688 -0.458799,1.01651 -0.847319,3.03729 -0.0508,4.89844 a 6.0231815,6.0231815 0 0 0 0,0.002 c 1.1e-4,2.4e-4 0.36917,0.72557 0.46875,0.88086 0.0996,0.15529 0.16299,0.24382 0.21485,0.31445 0.1037,0.14126 0.15637,0.20552 0.19922,0.25781 0.0857,0.10459 0.12372,0.14479 0.15625,0.18165 0.065,0.0737 0.0975,0.10824 0.13281,0.14648 0.0706,0.0765 0.13641,0.14727 0.21875,0.23437 0.16468,0.17421 0.38491,0.40559 0.66601,0.69922 0.56222,0.58726 1.36097,1.41728 2.34376,2.4375 1.96556,2.04045 4.66358,4.83524 7.61718,7.89453 l 10.68946,11.12891 a 6.0231815,6.0231815 0 0 0 6.71484,1.36523 l 50.30859,-21.53906 c 18.15766,-7.77411 30.73943,-13.21464 38.82617,-16.80273 4.04338,-1.79405 6.95205,-3.11889 8.94336,-4.07813 0.99566,-0.47961 1.74552,-0.85642 2.41407,-1.23242 0.33427,-0.188 0.62889,-0.35101 1.09375,-0.68945 0.23243,-0.16922 0.50501,-0.35387 0.97461,-0.85547 0.4696,-0.5016 1.80497,-1.25857 1.6582,-4.46094 a 6.0231815,6.0231815 0 0 0 -0.0137,-0.22265 c -0.1787,-2.15403 -0.90841,-2.76862 -1.25782,-3.21875 -0.3494,-0.45014 -0.5694,-0.64656 -0.74609,-0.80664 -0.35337,-0.32018 -0.53821,-0.44222 -0.70898,-0.5625 -0.34155,-0.24057 -0.58803,-0.38985 -0.87891,-0.56446 -0.58176,-0.34921 -1.28024,-0.74166 -2.16406,-1.22461 -1.76764,-0.9659 -4.23476,-2.26573 -7.26953,-3.83398 -6.06854,-3.13599 -14.3853,-7.33113 -23.51953,-11.8418 l -0.004,-0.002 c -10.57977,-5.23444 -18.81062,-9.40307 -24.30859,-12.30078 -1.97402,-1.04041 -3.14333,-1.70269 -4.3711,-2.39063 0.4709,-2.03376 1.06065,-4.58537 1.81641,-7.86523 1.65372,-7.1769 3.90236,-16.946088 6.35547,-27.570315 a 6.0231815,6.0231815 0 0 0 0,-0.0078 c 3.47238,-15.1143 5.65917,-24.88571 6.92578,-31.177734 0.6333,-3.146012 1.03813,-5.40649 1.26562,-7.175781 0.11375,-0.884646 0.1889,-1.637853 0.19922,-2.449219 0.0103,-0.811366 0.15236,-1.60765 -0.5918,-3.345703 l -0.77539,-1.810547 a 6.0231815,6.0231815 0 0 0 -5.53125,-3.65039 z" />
  </g>
  <path
     inkscape:export-filename="/Users/mgubi/notes-icon.png"
     inkscape:export-ydpi="83.356628"
     inkscape:export-xdpi="83.356628"
     inkscape:connector-curvature="0"
     d="m 43.838224,257.44645 -17.02877,7.18266 8.97974,16.71415 17.43654,-7.3405 z"
     style="fill:none;fill-rule:evenodd;stroke:#1a1a1a;stroke-width:0.489633;stroke-linecap:round;stroke-linejoin:round;stroke-miterlimit:4;stroke-dasharray:none;stroke-opacity:1"
     id="path7320-3" />
  <path
     inkscape:export-filename="/Users/mgubi/notes-icon.png"
     sodipodi:nodetypes="sssssssssccccccccccccccccccccccccccccccccccccccccccccccccccccccccccccccsccccccccccccccccc"
     inkscape:export-ydpi="83.356628"
     inkscape:export-xdpi="83.356628"
     d="m 31.712994,252.36229 c -5.32299,0 -9.60831,4.20693 -9.60831,9.43273 v 17.98809 c 0,5.2258 4.28532,9.43291 9.60831,9.43291 h 16.37954 c 5.32299,0 9.6083,-4.20711 9.6083,-9.43291 v -17.98809 c 0,-5.2258 -4.28531,-9.43273 -9.6083,-9.43273 z m 12.36193,4.66323 1.83813,3.24057 c 0.30692,10e-4 0.59242,0.0106 0.62616,0.0433 7.4e-4,7.5e-4 0.007,0.009 0.008,0.0102 0.0395,0.0337 0.12782,0.0754 0.2979,0.31317 0.26373,0.36875 0.53122,0.8087 0.52183,1.02585 -0.002,0.0423 -0.0374,0.70963 -0.056,1.07183 l 0.58035,1.02584 c 0.31334,7.5e-4 0.60729,0.01 0.64161,0.0433 7.5e-4,7.5e-4 0.007,0.009 0.008,0.0102 0.0396,0.0337 0.12776,0.0755 0.29772,0.31317 0.26373,0.36874 0.53122,0.80869 0.52183,1.02585 -0.002,0.0432 -0.0392,0.71976 -0.0585,1.09473 l 0.56527,0.99785 c 0.34565,-10e-4 0.68538,0.01 0.72285,0.0458 7.4e-4,7.4e-4 0.007,0.009 0.008,0.0102 0.0396,0.0337 0.1254,0.0755 0.29536,0.31317 0.26373,0.36874 0.53121,0.80869 0.52183,1.02584 -0.002,0.0482 -0.0404,0.77421 -0.0636,1.22196 l 0.42259,0.7434 c 0.3173,5.6e-4 0.61691,0.01 0.65161,0.0433 7.4e-4,7.4e-4 0.007,0.009 0.008,0.0102 0.0395,0.0337 0.12782,0.0779 0.2979,0.31572 0.26373,0.36874 0.53122,0.80615 0.52183,1.0233 -0.002,0.0439 -0.0387,0.72762 -0.0585,1.11254 l 0.47094,0.83246 0.084,0.0305 c 0.0158,0.52326 0.10939,1.63231 -0.34607,1.86593 -0.12494,0.053 -0.25919,0.10971 -0.38442,0.16285 -0.0185,0.24902 -0.0498,0.84774 -0.0585,0.84773 -0.0202,-3e-5 -0.0469,0.001 -0.0611,0.003 -0.0401,-6e-5 -0.0697,0.004 -0.0943,0.003 -0.0537,0.008 -0.24794,-0.27572 -0.43276,-0.58036 -5.23093,2.218 -10.67137,4.50414 -16.00712,6.75615 -0.54807,0.33322 -0.99009,0.0525 -1.31866,-0.51165 -0.36309,-0.69408 -0.72638,-1.38283 -1.08964,-2.07477 -0.16336,0.0598 -0.35082,0.11213 -0.42259,0.16049 -0.13366,0.0901 -0.27589,4.71326 -0.3717,4.70955 -0.0708,-0.003 -0.10987,-0.003 -0.15777,-0.005 -7e-5,10e-6 8e-5,0.003 0,0.003 -0.0892,-3.7e-4 -0.0626,0.005 -0.12723,-0.003 -1.8e-4,-3e-5 1.9e-4,-0.0101 0,-0.0102 -0.10358,-0.005 -0.6459,-1.25317 -0.68995,-1.42063 -0.0445,-0.16908 0.0719,-4.46539 0.24701,-4.61267 0.10471,-0.0881 0.45302,-0.20053 0.75848,-0.275 -0.39566,-0.75256 -0.79302,-1.50572 -1.18871,-2.25798 -0.17025,0.0659 -0.37849,0.12103 -0.45566,0.17303 -0.13367,0.0901 -0.27589,4.71326 -0.3717,4.70955 -0.0708,-0.003 -0.11005,-0.003 -0.15795,-0.005 -8e-5,0 8e-5,0.003 0,0.003 -0.0892,-3.7e-4 -0.0626,0.005 -0.12723,-0.003 -1.9e-4,-3e-5 1.9e-4,-0.0101 0,-0.0102 -0.10358,-0.005 -0.64591,-1.25299 -0.68996,-1.42044 -0.0445,-0.16909 0.0719,-4.46559 0.24701,-4.61286 0.1091,-0.0918 0.48115,-0.20866 0.79429,-0.28245 -0.41426,-0.78823 -0.8257,-1.58987 -1.23978,-2.38031 -0.17247,0.0687 -0.39137,0.12469 -0.47093,0.1783 -0.13367,0.0901 -0.27843,4.71308 -0.37424,4.70937 -0.0705,-0.003 -0.10764,-0.003 -0.15523,-0.005 -1.8e-4,2e-5 1.9e-4,0.005 0,0.005 -0.0892,-3.7e-4 -0.0627,0.002 -0.12741,-0.005 -1.8e-4,-2e-5 1.9e-4,-0.008 0,-0.008 -0.10063,0.005 -0.64556,-1.25236 -0.68977,-1.42044 -0.0445,-0.16909 0.0692,-4.46813 0.24428,-4.6154 0.11192,-0.0941 0.50247,-0.21195 0.81973,-0.285 -0.3943,-0.75504 -0.78713,-1.51137 -1.18106,-2.27071 -0.1757,0.0785 -0.4345,0.1446 -0.52202,0.20357 -0.13366,0.0901 -0.27588,4.71072 -0.37169,4.707 -0.0696,-0.003 -0.10848,-4.6e-4 -0.15522,-0.003 -8e-5,0 7e-5,0.003 0,0.003 -0.0892,-3.7e-4 -0.0651,0.005 -0.12978,-0.003 -1.9e-4,-3e-5 -0.002,-0.0125 -0.003,-0.0127 -0.10482,-0.009 -0.64343,-1.25072 -0.68741,-1.4179 -0.0445,-0.16908 0.0719,-4.46558 0.24701,-4.61285 0.11882,-0.0999 0.54877,-0.23026 0.87317,-0.30045 -0.12713,-0.24634 -0.2548,-0.48605 -0.38188,-0.73303 -0.30472,-0.66009 -0.33011,-1.94155 -0.35134,-2.67567 l 0.0102,0.003 0.0763,0.0256 z"
     style="fill:#1a1a1a;fill-opacity:1;stroke:none;stroke-width:0.451254;stroke-linejoin:round;stroke-miterlimit:4;stroke-dasharray:none;stroke-opacity:1"
     id="rect1986-8"
     inkscape:connector-curvature="0" />
  <path
     inkscape:export-filename="/Users/mgubi/notes-icon.png"
     inkscape:export-ydpi="83.356628"
     inkscape:export-xdpi="83.356628"
     transform="matrix(0.09306042,0,0,0.09306042,26.359294,256.65099)"
     d="m 178.21094,35.708984 c -1.01397,-0.0014 -2.02755,0.206732 -2.95899,0.607422 a 1.4387799,1.4387799 0 0 0 -0.002,0.002 l -50.49805,21.763672 a 1.4387799,1.4387799 0 0 0 -0.0332,0.01563 l -0.0488,0.02148 -50.398436,21.789062 c -2.646619,1.144294 -4.492018,3.938881 -4.501953,6.822266 a 1.4387799,1.4387799 0 0 0 0,0.002 l -0.0293,8.947266 a 1.4387799,1.4387799 0 0 0 0.002,0.04297 c 2.86e-4,0.01052 -3.31e-4,0.02073 0,0.03125 0.03152,4.732904 -0.03952,10.589304 0.01367,13.611324 a 1.4387799,1.4387799 0 0 0 -0.0039,0.0645 l 0.0078,4.85742 c 0.0039,2.45563 1.309865,4.87298 3.361328,6.22266 2.051463,1.34967 4.786346,1.59143 7.042968,0.62304 l 1.083985,-0.46484 c 2.926244,-1.25285 4.184771,-3.53929 4.794922,-5.0625 0.533607,-1.33212 0.723725,-2.6177 0.779297,-3.87891 9.71e-4,-0.003 0.0087,-0.0146 0.0098,-0.0176 0.05399,-0.15395 0.05642,-0.1973 0.06641,-0.24804 0.01998,-0.10149 0.02985,-0.17168 0.04297,-0.25977 0.05248,-0.35235 0.134245,-0.90202 0.25586,-1.33984 0.296797,-1.0685 0.767076,-2.4629 1.24414,-3.6543 2.830058,-7.067789 8.631083,-13.106208 20.455074,-19.568358 l 0.004,-0.002 c 0.67408,-0.365418 5.57101,-2.680095 11.38867,-5.28711 5.83163,-2.613271 13.06299,-5.791207 20.10352,-8.845703 5.3047,-2.301414 9.96152,-4.279992 14.29883,-6.113281 -1.36042,5.968644 -2.95946,12.942505 -4.84961,21.154297 -2.2416,9.534429 -4.26766,18.282138 -5.73242,24.710938 -0.7334,3.21884 -1.32734,5.85457 -1.74024,7.74023 -0.20643,0.94274 -0.36672,1.69489 -0.48437,2.27149 -0.0588,0.28809 -0.10604,0.53109 -0.15039,0.7793 a 1.4387799,1.4387799 0 0 0 0,0.002 c -0.021,0.11752 -0.0471,0.25987 -0.0742,0.45508 0.005,-0.033 -0.0903,0.54747 -0.0488,1.44336 3e-5,8.2e-4 -4e-5,0.001 0,0.002 0.0567,1.37134 0.34078,2.37213 0.71679,3.09961 0.37624,0.72791 0.86025,1.20198 0.90821,1.26172 0.42756,0.53249 0.78624,0.84426 0.9375,0.97656 0.39586,0.34622 0.67891,0.53648 0.8164,0.63086 0.36256,0.2489 0.64277,0.41499 0.92188,0.58008 0.58523,0.34613 1.27788,0.73141 2.14648,1.20312 1.73906,0.94442 4.15754,2.2144 7.13086,3.75195 5.94675,3.07517 14.08924,7.20223 23.01953,11.65626 0.005,0.002 0.0108,0.003 0.0156,0.006 a 1.4387799,1.4387799 0 0 0 0.002,0.002 l 18.125,8.98828 -13.07422,5.69922 c -18.42923,8.03286 -29.86266,12.70645 -37.78711,15.17578 -7.94167,2.47468 -12.02392,2.84834 -17.75,2.5625 a 1.4387799,1.4387799 0 0 0 -0.0449,-0.002 c -2.15162,-0.0988 -5.16254,-0.90138 -7.68945,-1.82422 -1.26481,-0.46192 -2.4181,-0.95123 -3.29688,-1.37696 -0.87877,-0.42572 -1.56139,-0.90356 -1.51757,-0.86132 a 1.4387799,1.4387799 0 0 0 -0.008,-0.01 c -0.0317,-0.03 -0.0635,-0.0584 -0.0957,-0.0879 -1.04374,-0.96856 -2.19628,-1.90643 -3.77539,-2.66211 -1.58367,-0.75784 -4.40434,-1.65833 -7.55664,-0.30859 -0.4952,0.21203 -1.04637,0.45863 -1.75586,0.90039 -0.26024,0.16202 -0.85754,0.51476 -1.59961,1.27343 -0.31686,0.32396 -0.975858,1.01934 -1.513671,2.21094 -0.627635,1.39057 -1.073794,3.69363 -0.0625,6.05664 a 1.4387799,1.4387799 0 0 0 0.01367,0.0352 c 5.5e-5,1.2e-4 0.121706,0.23875 0.230468,0.44726 0.108763,0.20852 0.172681,0.35674 0.335938,0.61133 0.115213,0.17963 0.205342,0.30657 0.265625,0.38867 0.11805,0.16081 0.20332,0.26617 0.246094,0.31836 0.103364,0.12615 0.183484,0.21173 0.191404,0.22071 0.0749,0.0849 0.12456,0.13966 0.1543,0.17187 0.0729,0.079 0.14376,0.15438 0.23047,0.2461 0.16771,0.17741 0.3893,0.40989 0.67187,0.70507 0.56465,0.58979 1.36458,1.4209 2.34766,2.44141 1.96653,2.04147 4.66356,4.83717 7.61719,7.89648 l 10.6875,11.125 c 2.08481,2.17103 5.55129,2.87598 8.31836,1.69141 l 50.30859,-21.53906 c 18.15986,-7.77506 30.74416,-13.21675 38.84375,-16.81055 4.0496,-1.7968 6.96619,-3.12352 8.98437,-4.0957 1.00665,-0.48491 1.78292,-0.87539 2.49414,-1.27539 0.32916,-0.18513 0.71535,-0.40195 1.23633,-0.78125 0.20234,-0.14732 0.6387,-0.45939 1.17774,-1.03516 0.0166,-0.0177 0.73457,-0.57234 1.25781,-1.48437 0.52281,-0.91128 0.86909,-2.2181 0.78711,-4.02149 v -0.002 c -0.004,-0.0914 -0.0103,-0.18226 -0.0176,-0.27344 a 1.4387799,1.4387799 0 0 0 0,-0.004 c -0.10176,-1.22657 -0.37658,-2.12731 -0.7207,-2.79101 -0.34412,-0.66371 -0.76227,-1.09901 -0.83399,-1.19141 -0.40445,-0.52106 -0.74568,-0.83592 -0.91601,-0.99023 -0.40356,-0.36566 -0.7019,-0.56921 -0.84766,-0.67188 -0.37888,-0.26686 -0.67317,-0.44678 -0.96679,-0.62304 -0.60964,-0.36594 -1.32313,-0.76469 -2.21485,-1.25196 -1.78534,-0.97557 -4.25854,-2.2785 -7.29883,-3.84961 -6.0785,-3.14113 -14.3987,-7.33879 -23.53711,-11.85156 l -0.006,-0.002 a 1.4387799,1.4387799 0 0 0 -0.002,-0.002 c -10.57348,-5.23133 -18.79984,-9.39824 -24.27734,-12.28516 -1.53166,-0.80726 -2.4246,-1.31362 -3.39258,-1.85547 0.4359,-1.88378 0.91654,-3.96744 1.57031,-6.80469 1.65379,-7.17719 3.9025,-16.944717 6.35547,-27.568356 a 1.4387799,1.4387799 0 0 0 0.0156,-0.08398 1.4387799,1.4387799 0 0 0 0.004,-0.01563 c 3.45581,-15.043626 5.64476,-24.821549 6.91406,-31.126953 0.63621,-3.160433 1.04795,-5.445706 1.28321,-7.27539 0.1167,-0.9076 0.19963,-1.72638 0.21094,-2.615235 0.008,-0.655428 0.12382,-1.984579 -0.70899,-3.929687 l -0.77539,-1.810547 c -1.14159,-2.663514 -3.95371,-4.521096 -6.85156,-4.523438 z M 98.824219,183.85156 98.707031,183.28711 a 1.4387799,1.4387799 0 0 0 0.117188,0.56445 z"
     inkscape:original="M 178.20898 37.148438 A 6.0231815 6.0231815 0 0 0 175.82031 37.638672 L 125.32227 59.402344 A 6.0231815 6.0231815 0 0 0 125.31445 59.40625 L 74.841797 81.228516 A 6.0231815 6.0231815 0 0 0 71.208984 86.736328 L 71.179688 95.683594 A 6.0231815 6.0231815 0 0 0 71.181641 95.744141 C 71.213771 100.56894 71.136809 106.61945 71.193359 109.53516 L 71.191406 109.42773 L 71.199219 114.28516 A 6.0231815 6.0231815 0 0 0 79.597656 119.81055 L 80.681641 119.3457 C 83.194115 118.27 84.147776 116.46646 84.707031 115.07031 C 85.266286 113.67416 85.447342 112.3661 85.439453 111.01367 A 6.0231815 6.0231815 0 0 0 85.435547 110.8457 C 85.471707 111.92011 85.495827 110.60958 85.810547 109.47656 C 86.125265 108.34354 86.606323 106.91843 87.105469 105.67188 C 90.085115 98.230508 96.224588 91.925191 108.21094 85.375 C 109.1274 84.877863 113.86869 82.650766 119.70117 80.037109 C 125.5405 77.420386 132.77541 74.239986 139.82031 71.183594 C 146.09152 68.462866 151.86896 65.999291 156.72461 63.957031 C 155.29482 70.247298 153.38029 78.586653 151.24414 87.867188 C 149.00235 97.402344 146.9759 106.14994 145.51172 112.57617 C 144.77882 115.79283 144.18668 118.42639 143.77539 120.30469 C 143.56975 121.24384 143.41017 121.98985 143.29492 122.55469 C 143.23732 122.83711 143.19188 123.06861 143.15039 123.30078 C 143.12969 123.41687 143.10994 123.52865 143.08594 123.70117 C 143.06574 123.84605 143.00843 124.05657 143.04883 124.88867 C 143.14833 127.30899 143.99712 127.96142 144.35742 128.41016 C 144.72669 128.87005 144.94657 129.05244 145.12109 129.20508 C 145.47014 129.51036 145.6421 129.62081 145.80469 129.73242 C 146.12985 129.95565 146.36478 130.09431 146.64453 130.25977 C 147.20402 130.59068 147.88457 130.96964 148.74609 131.4375 C 150.46914 132.37323 152.88086 133.64059 155.84961 135.17578 C 161.7871 138.24616 169.92746 142.37036 178.85352 146.82227 A 6.0231815 6.0231815 0 0 0 178.86523 146.82812 L 199.75781 157.18945 L 183.85156 164.12305 C 165.41012 172.16123 153.9585 176.84802 145.91797 179.35352 C 137.87744 181.85901 133.49749 182.27147 127.66797 181.98047 A 6.0231815 6.0231815 0 0 0 127.63867 181.98047 C 122.77735 181.76046 115.30961 178.58968 114.19336 177.51367 A 6.0231815 6.0231815 0 0 0 114.10938 177.43555 C 113.10995 176.50811 112.10347 175.69136 110.69141 175.01562 C 109.27935 174.3399 106.99172 173.58943 104.32227 174.73242 C 103.83644 174.94044 103.39587 175.13519 102.75977 175.53125 C 102.44171 175.72928 102.08458 175.92029 101.42969 176.58984 C 101.10224 176.92462 100.65606 177.37021 100.19727 178.38672 C 99.738468 179.40323 99.349966 181.42401 100.14648 183.28516 A 6.0231815 6.0231815 0 0 0 100.14648 183.28711 C 100.14659 183.28735 100.51565 184.01268 100.61523 184.16797 C 100.71483 184.32326 100.77822 184.41179 100.83008 184.48242 C 100.93378 184.62368 100.98645 184.68794 101.0293 184.74023 C 101.115 184.84482 101.15302 184.88502 101.18555 184.92188 C 101.25055 184.99558 101.28305 185.03012 101.31836 185.06836 C 101.38896 185.14486 101.45477 185.21563 101.53711 185.30273 C 101.70179 185.47694 101.92203 185.70832 102.20312 186.00195 C 102.76534 186.58921 103.56408 187.41923 104.54688 188.43945 C 106.51243 190.4799 109.21046 193.27469 112.16406 196.33398 L 122.85352 207.46289 A 6.0231815 6.0231815 0 0 0 129.56836 208.82812 L 179.87695 187.28906 C 198.03461 179.51495 210.61639 174.07442 218.70312 170.48633 C 222.74651 168.69228 225.65517 167.36744 227.64648 166.4082 C 228.64214 165.92859 229.392 165.55178 230.06055 165.17578 C 230.39482 164.98778 230.68944 164.82477 231.1543 164.48633 C 231.38673 164.31711 231.65931 164.13246 232.12891 163.63086 C 232.59851 163.12926 233.93388 162.37229 233.78711 159.16992 A 6.0231815 6.0231815 0 0 0 233.77344 158.94727 C 233.59474 156.79324 232.86503 156.17865 232.51562 155.72852 C 232.16622 155.27838 231.94622 155.08195 231.76953 154.92188 C 231.41616 154.6017 231.23132 154.47966 231.06055 154.35938 C 230.719 154.11881 230.47252 153.96953 230.18164 153.79492 C 229.59988 153.44571 228.9014 153.05326 228.01758 152.57031 C 226.24994 151.60441 223.78282 150.30458 220.74805 148.73633 C 214.67951 145.60034 206.36275 141.4052 197.22852 136.89453 L 197.22461 136.89258 C 186.64484 131.65814 178.41399 127.48951 172.91602 124.5918 C 170.942 123.55139 169.77269 122.88911 168.54492 122.20117 C 169.01582 120.16741 169.60557 117.6158 170.36133 114.33594 C 172.01505 107.15904 174.26369 97.389852 176.7168 86.765625 A 6.0231815 6.0231815 0 0 0 176.7168 86.757812 C 180.18918 71.643512 182.37597 61.872102 183.64258 55.580078 C 184.27588 52.434066 184.68071 50.173588 184.9082 48.404297 C 185.02195 47.519651 185.0971 46.766444 185.10742 45.955078 C 185.11772 45.143712 185.25978 44.347428 184.51562 42.609375 L 183.74023 40.798828 A 6.0231815 6.0231815 0 0 0 178.20898 37.148438 z "
     inkscape:radius="1.4386361"
     sodipodi:type="inkscape:offset"
     style="fill:#1a1a1a;fill-opacity:1;stroke:none;stroke-width:0.875365"
     id="path7645-0" />
</svg>
